<?xml version="1.0" encoding="UTF-8"?>
<svg xmlns="http://www.w3.org/2000/svg" xmlns:xlink="http://www.w3.org/1999/xlink" width="48px" height="48px" viewBox="0 0 48 48" version="1.1">
<g id="surface1">
<path style=" stroke:none;fill-rule:nonzero;fill:rgb(0%,0%,0%);fill-opacity:1;" d="M 28.921875 4.3125 L 10.054688 4.3125 C 8.46875 4.3125 7.183594 5.597656 7.183594 7.183594 L 7.183594 40.816406 C 7.183594 42.402344 8.46875 43.6875 10.054688 43.6875 L 28.921875 43.6875 C 30.507812 43.6875 31.792969 42.402344 31.792969 40.816406 L 31.792969 7.183594 C 31.792969 5.597656 30.507812 4.3125 28.921875 4.3125 Z M 10.054688 8.414062 C 10.054688 7.734375 10.605469 7.183594 11.285156 7.183594 L 15.386719 7.183594 C 16.066406 7.183594 16.617188 7.734375 16.617188 8.414062 C 16.617188 9.09375 16.066406 9.644531 15.386719 9.644531 L 12.515625 9.644531 L 12.515625 12.515625 C 12.515625 13.195312 11.964844 13.746094 11.285156 13.746094 C 10.605469 13.746094 10.054688 13.195312 10.054688 12.515625 Z M 15.386719 40.816406 L 11.285156 40.816406 C 10.605469 40.816406 10.054688 40.265625 10.054688 39.585938 L 10.054688 35.484375 C 10.054688 34.804688 10.605469 34.253906 11.285156 34.253906 C 11.964844 34.253906 12.515625 34.804688 12.515625 35.484375 L 12.515625 38.355469 L 15.386719 38.355469 C 16.066406 38.355469 16.617188 38.90625 16.617188 39.585938 C 16.617188 40.265625 16.066406 40.816406 15.386719 40.816406 Z M 20.5625 30.664062 C 20.339844 31.046875 19.929688 31.285156 19.488281 31.285156 C 19.046875 31.285156 18.636719 31.046875 18.414062 30.664062 L 17.027344 28.261719 L 14.253906 28.261719 C 13.808594 28.261719 13.402344 28.027344 13.179688 27.640625 C 12.957031 27.257812 12.957031 26.785156 13.179688 26.402344 L 14.566406 24 L 13.179688 21.597656 C 12.957031 21.214844 12.957031 20.742188 13.179688 20.359375 C 13.402344 19.972656 13.808594 19.738281 14.253906 19.738281 L 17.027344 19.738281 L 18.414062 17.335938 C 18.636719 16.953125 19.046875 16.714844 19.488281 16.714844 C 19.929688 16.714844 20.339844 16.953125 20.5625 17.335938 L 21.949219 19.738281 L 24.722656 19.738281 C 25.167969 19.738281 25.574219 19.972656 25.796875 20.359375 C 26.019531 20.742188 26.019531 21.214844 25.796875 21.597656 L 24.410156 24 L 25.796875 26.402344 C 26.019531 26.785156 26.019531 27.257812 25.796875 27.640625 C 25.574219 28.027344 25.167969 28.261719 24.722656 28.261719 L 21.949219 28.261719 Z M 28.921875 39.585938 C 28.921875 40.265625 28.371094 40.816406 27.691406 40.816406 L 23.589844 40.816406 C 22.910156 40.816406 22.359375 40.265625 22.359375 39.585938 C 22.359375 38.90625 22.910156 38.355469 23.589844 38.355469 L 26.460938 38.355469 L 26.460938 35.484375 C 26.460938 34.804688 27.011719 34.253906 27.691406 34.253906 C 28.371094 34.253906 28.921875 34.804688 28.921875 35.484375 Z M 28.921875 12.515625 C 28.921875 13.195312 28.371094 13.746094 27.691406 13.746094 C 27.011719 13.746094 26.460938 13.195312 26.460938 12.515625 L 26.460938 9.644531 L 23.589844 9.644531 C 22.910156 9.644531 22.359375 9.09375 22.359375 8.414062 C 22.359375 7.734375 22.910156 7.183594 23.589844 7.183594 L 27.691406 7.183594 C 28.371094 7.183594 28.921875 7.734375 28.921875 8.414062 Z M 28.921875 12.515625 "/>
<path style=" stroke:none;fill-rule:nonzero;fill:rgb(0%,0%,0%);fill-opacity:1;" d="M 38.925781 10.121094 L 34.253906 8.417969 L 34.253906 31.351562 L 40.640625 13.796875 C 41.183594 12.308594 40.417969 10.660156 38.925781 10.121094 Z M 38.925781 10.121094 "/>
</g>
</svg>
