<svg width="353.521" height="91.682" viewBox="0 0 353.521 91.682" xmlns="http://www.w3.org/2000/svg"><g id="svgGroup" stroke-linecap="round" fill-rule="nonzero" font-size="9pt" stroke="#000000" stroke-width=".3mm" fill="none" style="stroke:#000000;stroke-width:.3mm;fill:none"><path d="M 242.401 90.24 L 231.601 90.24 L 231.601 27.84 L 242.041 27.84 L 242.041 38.28 Q 245.401 33.24 250.621 29.82 A 20.779 20.779 0 0 1 259.147 26.671 A 27.155 27.155 0 0 1 263.041 26.4 A 27.87 27.87 0 0 1 269.119 27.021 Q 275.232 28.388 278.821 32.76 Q 283.77 38.791 284.027 48.49 A 40.517 40.517 0 0 1 284.041 49.56 L 284.041 90.24 L 273.241 90.24 L 273.241 50.76 Q 273.241 45.251 271.103 41.516 A 13.159 13.159 0 0 0 270.061 39.96 A 10.295 10.295 0 0 0 262.529 35.936 A 14.474 14.474 0 0 0 261.241 35.88 A 15.746 15.746 0 0 0 253.021 38.237 A 20.824 20.824 0 0 0 250.801 39.78 Q 245.881 43.68 242.401 48.96 L 242.401 90.24 Z M 88.561 90.24 L 77.761 90.24 L 77.761 39.48 L 68.161 39.48 L 68.161 30.12 L 77.761 30.12 L 77.761 22.8 A 30.594 30.594 0 0 1 78.512 15.819 Q 79.862 10.053 83.641 6.12 A 19.641 19.641 0 0 1 96.126 0.15 A 26.955 26.955 0 0 1 99.001 0 Q 103.584 0 107.126 0.99 A 21.461 21.461 0 0 1 107.641 1.14 Q 111.361 2.28 114.721 3.96 L 111.481 13.08 A 46.75 46.75 0 0 0 107.148 11.094 A 52.662 52.662 0 0 0 106.081 10.68 A 17.007 17.007 0 0 0 101.734 9.695 A 20.827 20.827 0 0 0 99.721 9.6 A 12.963 12.963 0 0 0 96.085 10.085 A 9.95 9.95 0 0 0 91.621 12.78 Q 88.561 15.96 88.561 22.08 L 88.561 30.12 L 107.041 30.12 L 107.041 39.48 L 88.561 39.48 L 88.561 90.24 Z M 130.321 90.24 L 119.521 90.24 L 119.521 39.48 L 109.921 39.48 L 109.921 30.12 L 119.521 30.12 L 119.521 22.8 A 30.594 30.594 0 0 1 120.272 15.819 Q 121.622 10.053 125.401 6.12 A 19.641 19.641 0 0 1 137.886 0.15 A 26.955 26.955 0 0 1 140.761 0 Q 145.344 0 148.886 0.99 A 21.461 21.461 0 0 1 149.401 1.14 Q 153.121 2.28 156.481 3.96 L 153.241 13.08 A 46.75 46.75 0 0 0 148.908 11.094 A 52.662 52.662 0 0 0 147.841 10.68 A 17.007 17.007 0 0 0 143.494 9.695 A 20.827 20.827 0 0 0 141.481 9.6 A 12.963 12.963 0 0 0 137.845 10.085 A 9.95 9.95 0 0 0 133.381 12.78 Q 130.321 15.96 130.321 22.08 L 130.321 30.12 L 148.801 30.12 L 148.801 39.48 L 130.321 39.48 L 130.321 90.24 Z M 353.161 63.48 L 309.481 63.48 Q 310.561 72.24 315.601 77.16 A 16.973 16.973 0 0 0 324.75 81.733 A 24.025 24.025 0 0 0 328.921 82.08 Q 334.321 82.08 338.641 80.94 Q 342.961 79.8 346.921 78 L 349.441 87.24 A 48.924 48.924 0 0 1 344.239 89.191 A 62.236 62.236 0 0 1 339.721 90.42 A 46.697 46.697 0 0 1 333.611 91.403 A 62.43 62.43 0 0 1 327.601 91.68 A 33.981 33.981 0 0 1 318.305 90.474 A 25.33 25.33 0 0 1 306.301 83.1 A 28.226 28.226 0 0 1 300.054 71.652 Q 298.441 66.055 298.441 59.04 A 42.43 42.43 0 0 1 299.44 49.654 A 34.608 34.608 0 0 1 301.981 42.3 Q 305.521 34.92 311.881 30.66 A 25.258 25.258 0 0 1 324.192 26.494 A 31.446 31.446 0 0 1 326.641 26.4 A 34.264 34.264 0 0 1 333.205 26.995 Q 337.218 27.779 340.422 29.593 A 20.656 20.656 0 0 1 341.581 30.3 Q 347.521 34.2 350.521 40.8 A 33.822 33.822 0 0 1 353.432 52.637 A 40.121 40.121 0 0 1 353.521 55.32 A 90.244 90.244 0 0 1 353.172 63.356 A 83.149 83.149 0 0 1 353.161 63.48 Z M 309.361 54.72 L 343.561 54.72 A 29.226 29.226 0 0 0 343.075 49.218 Q 342.073 43.995 339.001 40.68 A 14.986 14.986 0 0 0 330.648 36.149 A 22.074 22.074 0 0 0 326.401 35.76 A 16.296 16.296 0 0 0 320.267 36.882 A 15.029 15.029 0 0 0 314.881 40.62 A 18.198 18.198 0 0 0 311.352 46.247 Q 310.34 48.719 309.784 51.745 A 38.425 38.425 0 0 0 309.361 54.72 Z M 159.481 70.68 L 159.481 1.44 L 170.281 1.44 L 170.281 69.6 Q 170.281 73.489 171.253 76.167 A 9.568 9.568 0 0 0 172.981 79.2 A 8.836 8.836 0 0 0 178.481 82.171 A 12.869 12.869 0 0 0 180.481 82.32 Q 182.761 82.32 184.981 81.78 A 26.63 26.63 0 0 0 186.736 81.293 Q 187.578 81.025 188.296 80.725 A 14.331 14.331 0 0 0 188.761 80.52 L 191.401 89.28 Q 189.241 90.24 186.061 90.96 A 28.58 28.58 0 0 1 182.274 91.542 A 36.616 36.616 0 0 1 179.041 91.68 A 25.035 25.035 0 0 1 173.172 91.016 A 21.053 21.053 0 0 1 169.081 89.58 A 15.22 15.22 0 0 1 162.691 83.862 A 19.027 19.027 0 0 1 162.061 82.8 A 18.906 18.906 0 0 1 160.297 78.177 Q 159.481 74.865 159.481 70.68 Z M 20.714 90.073 A 29.471 29.471 0 0 1 15.121 87.54 Q 8.041 83.4 4.021 76.02 A 32.941 32.941 0 0 1 0.319 64.265 A 41.784 41.784 0 0 1 0.001 59.04 A 42.007 42.007 0 0 1 0.782 50.748 A 31.227 31.227 0 0 1 4.081 41.64 Q 8.161 34.32 15.241 30.36 Q 22.321 26.4 31.081 26.4 A 33.285 33.285 0 0 1 41.291 27.928 A 29.818 29.818 0 0 1 46.861 30.36 Q 53.881 34.32 58.021 41.58 A 30.954 30.954 0 0 1 61.578 51.71 A 41.45 41.45 0 0 1 62.161 58.8 A 41.021 41.021 0 0 1 61.264 67.571 A 31.506 31.506 0 0 1 58.081 76.14 Q 54.001 83.52 46.981 87.6 A 30.308 30.308 0 0 1 33.81 91.581 A 36.871 36.871 0 0 1 31.081 91.68 A 32.657 32.657 0 0 1 20.714 90.073 Z M 31.081 82.08 A 22.49 22.49 0 0 0 37.352 81.251 A 16.801 16.801 0 0 0 45.841 75.66 A 22.563 22.563 0 0 0 50.424 65.952 A 32.526 32.526 0 0 0 51.121 59.04 A 25.651 25.651 0 0 0 49.651 50.297 A 24.017 24.017 0 0 0 48.481 47.58 A 23.037 23.037 0 0 0 43.474 40.898 A 21.804 21.804 0 0 0 41.341 39.18 Q 36.841 36 31.081 36 A 23.099 23.099 0 0 0 24.809 36.806 A 16.844 16.844 0 0 0 16.321 42.24 A 21.454 21.454 0 0 0 11.912 51.089 Q 11.122 54.278 11.048 58.02 A 39.444 39.444 0 0 0 11.041 58.8 Q 11.041 65.04 13.681 70.38 A 23.324 23.324 0 0 0 17.917 76.428 A 21.153 21.153 0 0 0 20.821 78.9 Q 25.321 82.08 31.081 82.08 Z M 212.401 90.24 L 201.601 90.24 L 201.601 27.84 L 212.401 27.84 L 212.401 90.24 Z M 201.765 14.986 A 8.961 8.961 0 0 1 201.661 14.88 A 7.972 7.972 0 0 1 200.031 12.503 A 7.19 7.19 0 0 1 199.441 9.6 A 9.585 9.585 0 0 1 199.716 7.239 A 6.705 6.705 0 0 1 201.481 4.08 A 6.793 6.793 0 0 1 205.014 2.23 A 9.916 9.916 0 0 1 207.001 2.04 A 7.27 7.27 0 0 1 212.271 4.191 A 8.875 8.875 0 0 1 212.341 4.26 A 7.273 7.273 0 0 1 214.56 9.503 A 8.711 8.711 0 0 1 214.561 9.6 A 9.013 9.013 0 0 1 214.23 12.1 A 6.932 6.932 0 0 1 212.521 15.06 A 6.777 6.777 0 0 1 208.796 17.003 A 9.81 9.81 0 0 1 207.001 17.16 A 7.167 7.167 0 0 1 201.765 14.986 Z"/></g></svg>