<?xml version="1.0" encoding="UTF-8"?>
<svg xmlns="http://www.w3.org/2000/svg" xmlns:xlink="http://www.w3.org/1999/xlink" width="4000" height="4000" viewBox="0 0 4000 4000">
<rect x="-400" y="-400" width="4800" height="4800" fill="rgb(100%, 100%, 100%)" fill-opacity="1"/>
<path fill="none" stroke-width="120.24" stroke-linecap="round" stroke-linejoin="round" stroke="rgb(50.584412%, 36.888123%, 25.097656%)" stroke-opacity="1" stroke-miterlimit="10" d="M 34468.28125 22204.6875 C 33423.085938 23822.617188 31236.210938 23610.390625 29186.914062 24790.585938 C 28061.289062 25438.90625 27179.6875 26692.890625 26229.882812 27303.398438 C 25812.382812 27571.796875 25326.992188 27948.710938 24851.71875 28177.890625 C 24466.40625 28363.59375 23784.6875 28512.382812 23396.601562 28702.617188 C 22585.117188 29100.507812 22090 29299.414062 21416.09375 30389.414062 C 21214.804688 30715 21016.71875 31447.1875 21306.09375 31726.210938 C 21402.8125 31819.414062 21830.195312 31387.5 21883.710938 31341.601562 C 22887.695312 30479.609375 23975.117188 30062.382812 25088.28125 29803.28125 C 26022.5 29585.898438 27377.382812 29473.203125 28636.796875 29188.203125 C 29528.398438 28986.484375 30713.59375 28623.085938 31538.789062 27999.804688 M 36407.617188 24790.585938 C 35266.015625 26527.8125 33431.71875 27910.703125 32929.296875 28273.984375 C 31486.992188 29317.109375 30143.515625 30456.484375 28765.898438 31519.21875 C 27034.492188 32854.609375 25977.109375 35234.296875 23630.117188 35557.5 C 22527.617188 35709.414062 21649.882812 35943.203125 20535.898438 36460.3125 C 20152.304688 36638.398438 19476.796875 37189.6875 19267.109375 37144.101562 C 19197.890625 37128.984375 19179.882812 36516.601562 19201.796875 36420.585938 C 19476.796875 35213.789062 21570.703125 34538.90625 23052.8125 33967.304688 C 23340.195312 33856.40625 23624.101562 33602.382812 23907.5 33309.492188 C 24369.882812 32831.484375 24911.210938 31953.398438 25063.28125 31739.296875 C 25487.1875 31142.695312 25762.304688 30585.703125 26628.710938 29538.085938 M 24070.585938 33118.59375 C 23327.890625 33569.414062 21227.8125 32956.40625 20604.609375 32786.992188 C 19091.71875 32375.898438 17474.804688 32847.109375 17661.289062 32521.796875 C 18307.8125 31394.609375 19588.59375 31550 20962.1875 31739.296875 C 22406.40625 31938.28125 23712.890625 31673.085938 24579.414062 31010.117188 M 22021.289062 29577.890625 C 21306.09375 29630.898438 20078.710938 28392.617188 19193.007812 28318.085938 C 18720.390625 28278.28125 18142.695312 28397.617188 17950.195312 28768.90625 C 17905.585938 28854.882812 18453.007812 28904.101562 18651.601562 28954.609375 C 18935.585938 29026.796875 19353.007812 29206.601562 19738.085938 29485 C 20331.484375 29914.101562 20563.398438 30360.3125 21223.515625 30651.992188 M 24579.414062 31010.117188 C 23644.21875 31248.789062 22977.617188 31222.1875 22268.789062 31049.804688 M 24414.414062 32641.210938 C 24719.296875 31906.210938 24373.085938 30744.804688 25019.609375 29869.609375 M 23534.21875 28636.289062 C 22007.5 28516.992188 21164.296875 27199.414062 20136.992188 27246.914062 C 19628.085938 27270.390625 19285.703125 27585.585938 19311.796875 27588.710938 C 19641.914062 27628.515625 20164.492188 27747.8125 20398.28125 27912.890625 C 20943.59375 28298.007812 20921.015625 28463.90625 21402.304688 28875 C 21779.882812 29197.5 21897.5 29233.085938 22268.789062 29352.382812 " transform="matrix(0.1, 0, 0, -0.1, 0, 4000)"/>
<path fill="none" stroke-width="120.24" stroke-linecap="round" stroke-linejoin="round" stroke="rgb(50.584412%, 36.888123%, 25.097656%)" stroke-opacity="1" stroke-miterlimit="10" d="M 5531.679688 17795.3125 C 6576.953125 16177.382812 8763.789062 16389.609375 10813.085938 15209.414062 C 11938.710938 14561.09375 12820.3125 13307.109375 13770.117188 12696.601562 C 14187.617188 12428.203125 14673.007812 12051.289062 15148.28125 11822.109375 C 15533.59375 11636.40625 16215.3125 11487.617188 16603.398438 11297.382812 C 17414.882812 10899.492188 17910 10700.585938 18583.90625 9610.625 C 18785.3125 9285 18983.28125 8552.851562 18693.90625 8273.867188 C 18597.1875 8180.585938 18169.804688 8612.5 18116.289062 8658.4375 C 17112.304688 9520.390625 16024.882812 9937.617188 14911.71875 10196.71875 C 13977.617188 10414.101562 12622.617188 10526.796875 11363.203125 10811.796875 C 10471.601562 11013.515625 9286.40625 11376.914062 8461.210938 12000.195312 M 3592.382812 15209.414062 C 4733.945312 13472.1875 6568.28125 12089.296875 7070.664062 11726.015625 C 8513.046875 10682.890625 9856.523438 9543.476562 11234.101562 8480.859375 C 12965.507812 7145.351562 14022.890625 4765.742188 16369.882812 4442.460938 C 17472.382812 4290.585938 18350.117188 4056.835938 19464.21875 3539.648438 C 19847.695312 3361.601562 20523.203125 2810.273438 20732.890625 2855.9375 C 20802.1875 2871.015625 20820.117188 3483.359375 20798.28125 3579.453125 C 20523.203125 4786.171875 18429.296875 5461.132812 16947.1875 6032.734375 C 16659.804688 6143.59375 16375.898438 6397.617188 16092.5 6690.546875 C 15630.195312 7168.476562 15088.789062 8046.601562 14936.71875 8260.703125 C 14512.8125 8857.34375 14237.8125 9414.296875 13371.289062 10461.914062 M 15929.414062 6881.445312 C 16672.1875 6430.546875 18772.1875 7043.632812 19395.390625 7212.96875 C 20908.28125 7624.0625 22525.195312 7152.851562 22338.710938 7478.203125 C 21692.1875 8605.390625 20411.40625 8450.039062 19037.8125 8260.703125 C 17593.59375 8061.679688 16287.109375 8326.914062 15420.585938 8989.960938 M 17978.789062 10422.109375 C 18693.90625 10369.101562 19921.289062 11607.382812 20807.109375 11681.914062 C 21279.609375 11721.71875 21857.304688 11602.382812 22049.804688 11231.09375 C 22094.414062 11145.117188 21546.992188 11095.898438 21348.398438 11045.390625 C 21064.414062 10973.203125 20646.992188 10793.398438 20261.914062 10515 C 19668.515625 10085.898438 19436.601562 9639.726562 18776.484375 9348.007812 M 15420.585938 8989.960938 C 16355.78125 8751.25 17022.382812 8777.773438 17731.210938 8950.15625 M 15585.585938 7358.828125 C 15280.703125 8093.789062 15626.914062 9255.15625 14980.390625 10130.390625 M 16465.78125 11363.710938 C 17992.5 11483.007812 18835.703125 12800.585938 19863.007812 12753.085938 C 20371.914062 12729.609375 20714.296875 12414.414062 20688.203125 12411.289062 C 20358.085938 12371.484375 19835.507812 12252.1875 19601.71875 12087.109375 C 19056.40625 11701.992188 19078.984375 11536.09375 18597.695312 11125 C 18220.117188 10802.5 18102.5 10766.914062 17731.210938 10647.617188 " transform="matrix(0.1, 0, 0, -0.1, 0, 4000)"/>
<path fill="none" stroke-width="120.24" stroke-linecap="round" stroke-linejoin="round" stroke="rgb(50.584412%, 36.888123%, 25.097656%)" stroke-opacity="1" stroke-miterlimit="10" d="M 10463.59375 28685.195312 C 10500.898438 28699.609375 10940.390625 29106.015625 10967.1875 29137.109375 C 10986.09375 29159.21875 10864.296875 29814.101562 10868.203125 29891.796875 C 10868.710938 29901.40625 11283.59375 29306.914062 11313.789062 29298.59375 C 11413.398438 29271.09375 11919.804688 29304.882812 12050.507812 29304.492188 C 12068.984375 29304.492188 11465.585938 29000.78125 11451.601562 28965.78125 C 11445.585938 28950.898438 11598.007812 28329.101562 11599.101562 28231.71875 C 11599.101562 28231.484375 11165.898438 28810.703125 11106.40625 28832.890625 C 11086.40625 28840.390625 10417.617188 28667.382812 10463.59375 28685.195312 Z M 11280.390625 26481.09375 C 11295.703125 26445.3125 11720.78125 26024.804688 11753.28125 25999.296875 C 11776.289062 25981.289062 12454.492188 26104.101562 12535.195312 26101.015625 C 12545.117188 26100.585938 11931.992188 25695.703125 11923.59375 25666.484375 C 11895.898438 25570.3125 11935.117188 25082.1875 11935.898438 24956.210938 C 11936.015625 24938.398438 11616.015625 25517.617188 11579.609375 25530.898438 C 11564.21875 25536.484375 10920.507812 25384.414062 10819.492188 25382.617188 C 10819.296875 25382.617188 11416.40625 25805 11438.90625 25862.5 C 11446.601562 25881.992188 11261.601562 26525.3125 11280.390625 26481.09375 Z M 7820.703125 27008.085938 C 7849.84375 26981.601562 8416.71875 26766.992188 8457.265625 26756.601562 C 8485.9375 26749.296875 9051.679688 27130.195312 9126.5625 27159.414062 C 9135.742188 27163.007812 8749.6875 26550.703125 8754.492188 26520.78125 C 8770.273438 26422.109375 9014.296875 25992.8125 9068.710938 25878.28125 C 9076.445312 25861.992188 8537.65625 26263.085938 8498.828125 26260.703125 C 8482.304688 26259.6875 7960.585938 25865.78125 7869.296875 25824.101562 C 7869.0625 25823.984375 8233.085938 26445.898438 8229.101562 26507.1875 C 8227.734375 26527.890625 7784.648438 27041.015625 7820.703125 27008.085938 Z M 13136.796875 27795 C 13318.710938 27795 13466.289062 27652.617188 13466.289062 27477.1875 C 13466.289062 27301.796875 13318.710938 27159.414062 13136.796875 27159.414062 C 12954.882812 27159.414062 12807.1875 27301.796875 12807.1875 27477.1875 C 12807.1875 27652.617188 12954.882812 27795 13136.796875 27795 Z M 9456.289062 24043.398438 C 9638.203125 24043.398438 9785.859375 23901.015625 9785.859375 23725.585938 C 9785.859375 23550.195312 9638.203125 23407.8125 9456.289062 23407.8125 C 9274.375 23407.8125 9126.71875 23550.195312 9126.71875 23725.585938 C 9126.71875 23901.015625 9274.375 24043.398438 9456.289062 24043.398438 Z M 8797.148438 29575.585938 C 8979.023438 29575.585938 9126.71875 29433.28125 9126.71875 29257.890625 C 9126.71875 29082.5 8979.023438 28940.117188 8797.148438 28940.117188 C 8615.234375 28940.117188 8467.539062 29082.5 8467.539062 29257.890625 C 8467.539062 29433.28125 8615.234375 29575.585938 8797.148438 29575.585938 Z M 9456.289062 31991.914062 C 9638.203125 31991.914062 9785.859375 31849.492188 9785.859375 31674.101562 C 9785.859375 31498.710938 9638.203125 31356.289062 9456.289062 31356.289062 C 9274.375 31356.289062 9126.71875 31498.710938 9126.71875 31674.101562 C 9126.71875 31849.492188 9274.375 31991.914062 9456.289062 31991.914062 Z M 7021.171875 31356.289062 C 7203.085938 31356.289062 7350.78125 31213.90625 7350.78125 31038.59375 C 7350.78125 30863.203125 7203.085938 30720.78125 7021.171875 30720.78125 C 6839.296875 30720.78125 6691.601562 30863.203125 6691.601562 31038.59375 C 6691.601562 31213.90625 6839.296875 31356.289062 7021.171875 31356.289062 Z M 7021.171875 31356.289062 " transform="matrix(0.1, 0, 0, -0.1, 0, 4000)"/>
<path fill="none" stroke-width="120.24" stroke-linecap="round" stroke-linejoin="round" stroke="rgb(50.584412%, 36.888123%, 25.097656%)" stroke-opacity="1" stroke-miterlimit="10" d="M 29117.617188 18486.914062 C 29154.804688 18501.289062 29594.414062 18907.695312 29621.210938 18938.789062 C 29640.117188 18960.898438 29518.28125 19615.78125 29522.1875 19693.515625 C 29522.695312 19703.085938 29937.5 19108.59375 29967.695312 19100.3125 C 30067.304688 19072.8125 30573.789062 19106.601562 30704.492188 19106.210938 C 30723.007812 19106.210938 30119.609375 18802.5 30105.585938 18767.5 C 30099.609375 18752.617188 30251.992188 18130.898438 30253.085938 18033.398438 C 30253.085938 18033.203125 29819.882812 18612.382812 29760.390625 18634.609375 C 29740.390625 18642.109375 29071.601562 18469.101562 29117.617188 18486.914062 Z M 24433.28125 11543.59375 C 24470.507812 11557.890625 24910.117188 11964.414062 24936.914062 11995.507812 C 24955.78125 12017.5 24833.984375 12672.382812 24837.890625 12750.195312 C 24838.398438 12759.804688 25253.203125 12165.3125 25283.398438 12156.914062 C 25383.007812 12129.414062 25889.492188 12163.203125 26020.117188 12162.890625 C 26038.710938 12162.890625 25435.3125 11859.21875 25421.289062 11824.21875 C 25415.3125 11809.296875 25567.695312 11187.5 25568.789062 11090.117188 C 25568.789062 11089.882812 25135.585938 11669.101562 25076.09375 11691.289062 C 25056.015625 11698.789062 24387.304688 11525.78125 24433.28125 11543.59375 Z M 29813.515625 14811.914062 C 29842.1875 14784.882812 30405.703125 14562.109375 30446.015625 14551.09375 C 30474.609375 14543.398438 31046.210938 14916.09375 31121.601562 14944.21875 C 31130.78125 14947.617188 30735.195312 14341.015625 30739.609375 14311.015625 C 30753.789062 14212.109375 30991.09375 13779.296875 31043.710938 13663.984375 C 31051.210938 13647.695312 30518.710938 14056.484375 30479.882812 14054.6875 C 30463.28125 14053.90625 29935.507812 13667.695312 29843.59375 13627.1875 C 29843.398438 13627.109375 30216.992188 14243.710938 30213.984375 14305.117188 C 30213.007812 14325.78125 29777.890625 14845.195312 29813.515625 14811.914062 Z M 27810.898438 15072.8125 C 27794.804688 15037.382812 27776.71875 14450.507812 27780.3125 14410.195312 C 27782.8125 14381.71875 28345.78125 13996.914062 28399.609375 13938.789062 C 28406.210938 13931.71875 27678.085938 14075.3125 27650.507812 14060.78125 C 27559.492188 14013.085938 27222.8125 13646.71875 27129.414062 13558.59375 C 27116.210938 13546.09375 27325.703125 14170.585938 27310.3125 14205 C 27303.789062 14219.609375 26743.007812 14560.117188 26671.40625 14628.789062 C 26671.210938 14628.984375 27401.289062 14508.710938 27459.804688 14533.007812 C 27479.609375 14541.210938 27830.78125 15116.71875 27810.898438 15072.8125 Z M 31451.289062 17795.3125 C 31633.203125 17795.3125 31780.898438 17652.890625 31780.898438 17477.5 C 31780.898438 17302.109375 31633.203125 17159.6875 31451.289062 17159.6875 C 31269.414062 17159.6875 31121.71875 17302.109375 31121.71875 17477.5 C 31121.71875 17652.890625 31269.414062 17795.3125 31451.289062 17795.3125 Z M 28785.78125 12809.609375 C 28967.617188 12809.609375 29115.3125 12667.1875 29115.3125 12491.796875 C 29115.3125 12316.484375 28967.617188 12174.101562 28785.78125 12174.101562 C 28603.90625 12174.101562 28456.210938 12316.484375 28456.210938 12491.796875 C 28456.210938 12667.1875 28603.90625 12809.609375 28785.78125 12809.609375 Z M 31451.289062 12750.3125 C 31633.203125 12750.3125 31780.898438 12607.890625 31780.898438 12432.617188 C 31780.898438 12257.1875 31633.203125 12114.804688 31451.289062 12114.804688 C 31269.414062 12114.804688 31121.71875 12257.1875 31121.71875 12432.617188 C 31121.71875 12607.890625 31269.414062 12750.3125 31451.289062 12750.3125 Z M 29120.195312 16504.101562 C 29302.109375 16504.101562 29449.804688 16361.71875 29449.804688 16186.289062 C 29449.804688 16010.898438 29302.109375 15868.59375 29120.195312 15868.59375 C 28938.28125 15868.59375 28790.703125 16010.898438 28790.703125 16186.289062 C 28790.703125 16361.71875 28938.28125 16504.101562 29120.195312 16504.101562 Z M 32739.21875 14944.21875 C 32921.09375 14944.21875 33068.789062 14801.796875 33068.789062 14626.40625 C 33068.789062 14451.015625 32921.09375 14308.59375 32739.21875 14308.59375 C 32557.304688 14308.59375 32409.6875 14451.015625 32409.6875 14626.40625 C 32409.6875 14801.796875 32557.304688 14944.21875 32739.21875 14944.21875 Z M 32739.21875 14944.21875 " transform="matrix(0.1, 0, 0, -0.1, 0, 4000)"/>
<path fill="none" stroke-width="120.24" stroke-linecap="round" stroke-linejoin="round" stroke="rgb(50.584412%, 36.888123%, 25.097656%)" stroke-opacity="1" stroke-miterlimit="10" d="M 20248.59375 27159.414062 C 24355.585938 27159.414062 27690 23944.492188 27690 19984.492188 C 27690 16024.609375 24355.585938 12809.609375 20248.59375 12809.609375 C 16141.601562 12809.609375 12807.1875 16024.609375 12807.1875 19984.492188 C 12807.1875 23944.492188 16141.601562 27159.414062 20248.59375 27159.414062 Z M 20190.585938 27159.414062 C 20487.890625 27159.414062 20729.21875 23944.492188 20729.21875 19984.492188 C 20729.21875 16024.609375 20487.890625 12809.609375 20190.585938 12809.609375 C 19893.28125 12809.609375 19651.992188 16024.609375 19651.992188 19984.492188 C 19651.992188 23944.492188 19893.28125 27159.414062 20190.585938 27159.414062 Z M 20207.1875 27159.414062 L 26132.109375 15733.90625 L 14282.1875 15733.90625 Z M 26465.898438 21143.710938 L 26268.398438 20441.71875 L 26872.890625 20074.882812 L 26146.40625 20007.8125 L 25948.984375 19305.703125 L 25697.382812 19966.289062 L 24970.898438 19899.101562 L 25541.914062 20374.492188 L 25290.390625 21035.117188 L 25894.882812 20668.28125 Z M 22095.703125 15464.21875 L 22667.8125 14990 L 23271.40625 15358.007812 L 23021.40625 14696.914062 L 23593.515625 14222.695312 L 22866.796875 14288.28125 L 22616.71875 13627.1875 L 22417.695312 14328.90625 L 21691.015625 14394.492188 L 22294.6875 14762.5 Z M 24643.203125 25018.59375 L 24341.992188 24351.71875 L 24884.6875 23904.101562 L 24155.78125 23939.492188 L 23854.609375 23272.617188 L 23705.3125 23961.40625 L 22976.40625 23996.914062 L 23613.085938 24387.109375 L 23463.789062 25076.015625 L 24006.484375 24628.398438 Z M 20701.601562 15868.59375 C 21416.601562 16557.890625 23726.601562 18362.5 24431.015625 19041.71875 M 21829.882812 15778.710938 C 22064.6875 15972.8125 24549.882812 18025.390625 24806.289062 18210.78125 M 23115.78125 15771.992188 C 23620.507812 16119.609375 24690.3125 17044.21875 25237.1875 17411.796875 M 24574.21875 15771.992188 C 24801.992188 15958.28125 25498.085938 16512.8125 25651.484375 16660.703125 M 20701.601562 17159.6875 C 20923.789062 17373.984375 23609.804688 19866.40625 23861.601562 20048.398438 M 20729.21875 18342.304688 C 21231.484375 18826.601562 22937.5 20413.789062 23381.40625 20927.382812 M 20731.210938 19762.890625 C 20944.6875 19920.585938 22757.304688 21650.898438 22959.492188 21790.195312 M 20756.40625 21077.382812 C 20994.414062 21246.914062 22353.398438 22525.3125 22519.21875 22637.1875 M 20701.601562 22188.710938 C 21089.804688 22488.203125 21732.109375 23080.507812 22071.71875 23407.8125 M 20701.601562 23272.617188 C 20961.289062 23484.101562 21272.617188 23753.59375 21691.015625 24156.992188 M 20701.601562 24533.203125 C 20900.390625 24650.585938 21044.101562 24746.484375 21292.695312 24919.101562 M 15910.585938 18801.992188 C 16138.398438 18626.210938 19410.3125 16032.109375 19651.992188 15832.382812 M 15541.796875 18050 C 15926.601562 17771.796875 18369.101562 15947.695312 18551.289062 15771.992188 M 15134.609375 17304.609375 C 15277.695312 17166.601562 17071.992188 15876.796875 17224.6875 15778.710938 M 14809.882812 16660.703125 C 14878.007812 16603.28125 15674.414062 15925.703125 15910.585938 15771.992188 M 16343.90625 19633.007812 C 16900.78125 19297.382812 19213.203125 17461.914062 19651.992188 17159.6875 M 16768.203125 20495.898438 C 16976.40625 20375.507812 19450.507812 18662.695312 19627.695312 18577.304688 M 17224.6875 21406.71875 C 17855.78125 20990.390625 18983.59375 20151.09375 19627.695312 19762.890625 M 17646.601562 22260.3125 C 17928.28125 22082.5 19542.304688 21209.492188 19627.695312 21143.710938 M 18127.1875 23100.585938 C 18254.21875 23032.5 19328.59375 22418.085938 19627.695312 22188.710938 M 18551.289062 23979.414062 C 18645.117188 23919.21875 19625.507812 23326.71875 19715.3125 23272.617188 M 19055.3125 24890.3125 C 19403.398438 24682.617188 19569.101562 24602.617188 19715.3125 24533.203125 M 16153.984375 25331.289062 L 16693.007812 24795.585938 L 17345.195312 25117.695312 L 17026.09375 24464.609375 L 17565 23928.984375 L 16828.90625 24061.015625 L 16509.804688 23407.8125 L 16373.90625 24142.5 L 15637.8125 24274.492188 L 16289.882812 24596.601562 Z M 14130.78125 21406.71875 L 14669.6875 20871.09375 L 15321.914062 21193.203125 L 15002.8125 20540.117188 L 15541.796875 20004.414062 L 14805.585938 20136.40625 L 14486.484375 19483.28125 L 14350.585938 20218.007812 L 13614.492188 20349.882812 L 14266.71875 20671.992188 Z M 18189.609375 15548.085938 L 18048.28125 14814.414062 L 18698.007812 14487.8125 L 17960.898438 14361.015625 L 17819.492188 13627.1875 L 17505.3125 14282.617188 L 16768.203125 14155.703125 L 17311.09375 14687.617188 L 16996.914062 15342.890625 L 17646.71875 15016.289062 Z M 18189.609375 15548.085938 " transform="matrix(0.1, 0, 0, -0.1, 0, 4000)"/>
<path fill="none" stroke-width="120.26" stroke-linecap="round" stroke-linejoin="round" stroke="rgb(50.584412%, 36.888123%, 25.097656%)" stroke-opacity="1" stroke-miterlimit="10" d="M 21466.289062 3680.46875 C 21544.296875 3656.953125 22418.59375 3937.070312 22996.484375 4247.851562 C 23654.804688 4601.796875 24323.710938 5279.296875 24323.710938 5279.296875 C 24323.710938 5279.296875 23493.90625 5022.5 22741.796875 4613.90625 C 22308.203125 4378.320312 21947.695312 4131.328125 21466.289062 3680.46875 Z M 23743.984375 3078.984375 C 23768.085938 3152.5 23462.890625 3982.65625 23128.28125 4532.773438 C 22747.304688 5159.296875 22024.101562 5799.335938 22024.101562 5799.335938 C 22024.101562 5799.335938 22304.296875 5011.445312 22743.984375 4295.546875 C 22997.617188 3882.851562 23262.5 3539.179688 23743.984375 3078.984375 Z M 23376.09375 5977.773438 C 23303.710938 5941.289062 22890.898438 5147.148438 22710.195312 4533.320312 C 22504.296875 3834.296875 22528.203125 2899.140625 22528.203125 2899.140625 C 22528.203125 2899.140625 22926.601562 3646.484375 23158.789062 4448.203125 C 23292.617188 4910.351562 23366.40625 5330.78125 23376.09375 5977.773438 Z M 21324.414062 4850.195312 C 21361.289062 4781.796875 22186.015625 4402.929688 22826.015625 4241.992188 C 23554.882812 4058.789062 24535.585938 4099.257812 24535.585938 4099.257812 C 24535.585938 4099.257812 23759.6875 4465.351562 22923.710938 4671.71875 C 22441.796875 4790.703125 22002.382812 4853.125 21324.414062 4850.195312 Z M 21324.414062 4850.195312 " transform="matrix(0.1, 0, 0, -0.1, 0, 4000)"/>
</svg>
